# xmcd
# Track frame offsets:
# 150
# 12200
# 27487
# 39850
# 54357
# 68337
# 81647
# 95522
# 113745
# 137230
# 147842
# 158540
# 173847
# 186060
# 199890
# 214802
# 229865
# 243555
# 255540
# 271622
# 288620
# 300472
#
# Disc length: 4243 seconds
# Revision: 3
# Processed by: cddbd v1.4PL0 Copyright (c) Steve Scherf et al.
# Submitted via: VisiTrax 2.9.5.180 - For more info visit www.synapsa.com
#
DISCID=2e109116
DTITLE=Dolly Parton - Dolly Parton Største Hits
DYEAR=1999
DGENRE=Country
TTITLE0=Jolene
TTITLE1=Applejack
TTITLE2=9 to 5
TTITLE3=Don't Call It Love
TTITLE4=I Will Always Love You
TTITLE5=Here You Come Again
TTITLE6=Coat Of Many Colors
TTITLE7=Do I Ever Cross Your Mind
TTITLE8=You Are
TTITLE9=Love Is Like A Butterfly
TTITLE10=All I Can Do
TTITLE11=Think About Love
TTITLE12=The Bargain Store
TTITLE13=Just Because I'm A Woman
TTITLE14=But You Know I Love You
TTITLE15=Tie Our Love (In A Double Knot)
TTITLE16=Two Doors Down
TTITLE17=To Daddy
TTITLE18=Heartbreaker
TTITLE19=Save The Last Dance
TTITLE20=Baby I'm Burning
TTITLE21=Starting Over Again
EXTD=
EXTT0=
EXTT1=
EXTT2=
EXTT3=
EXTT4=
EXTT5=
EXTT6=
EXTT7=
EXTT8=
EXTT9=
EXTT10=
EXTT11=
EXTT12=
EXTT13=
EXTT14=
EXTT15=
EXTT16=
EXTT17=
EXTT18=
EXTT19=
EXTT20=
EXTT21=
PLAYORDER=
